# xmcd
#
# Track frame offsets: 
#        150
#        18685
#        33508
#        71923
#        98244
#        117212
#        141992
#        157122
#        169566
#        186578
#        208177
#        230062
#
# Disc length: 3269 seconds
#
# Revision: 1
# Processed by: cddbd v1.5.2PL0 Copyright (c) Steve Scherf et al.
# Submitted via: ExactAudioCopy v0.99pb5
#
DISCID=b80cc30c
DTITLE=B.B. King - B.B. King Playlist and Plus [CD3]
DYEAR=2008
DGENRE=Blues
TTITLE0=Guess Who
TTITLE1=I Like To Live The Love (Single Edit)
TTITLE2=To Know You Is To Love You
TTITLE3=Let The Good Times Roll (Live)
TTITLE4=When It All Comes Down (I'll Still Be Around)
TTITLE5=Never Make A Move Too Soon
TTITLE6=Better Not Look Down
TTITLE7=Caldonia (Live)
TTITLE8=There Must Be A Better World Somewhere
TTITLE9=When Love Comes To Town (Live)
TTITLE10=I'll Survive
TTITLE11=Is You Is or Is You Ain't My Baby
EXTD=
EXTT0=
EXTT1=
EXTT2=
EXTT3=
EXTT4=
EXTT5=
EXTT6=
EXTT7=
EXTT8=
EXTT9=
EXTT10=
EXTT11=
PLAYORDER=
